<svg xmlns="http://www.w3.org/2000/svg" viewBox="0 0 1200 900">
  <defs>
    <linearGradient id="bg" x1="0" y1="0" x2="1" y2="1">
      <stop offset="0" stop-color="#f7fafc"/>
      <stop offset="1" stop-color="#d8e0ea"/>
    </linearGradient>
    <linearGradient id="navy" x1="0" y1="0" x2="1" y2="1">
      <stop offset="0" stop-color="#061936"/>
      <stop offset="1" stop-color="#0b2a5b"/>
    </linearGradient>
    <filter id="shadow" x="-20%" y="-20%" width="140%" height="140%"><feDropShadow dx="0" dy="22" stdDeviation="22" flood-color="#061936" flood-opacity=".25"/></filter>
  </defs>
  <rect width="1200" height="900" fill="url(#bg)"/>
  <rect x="0" y="0" width="1200" height="900" fill="#061936" opacity=".06"/>
  <circle cx="1020" cy="120" r="220" fill="#9BE000" opacity=".14"/>
  <circle cx="140" cy="780" r="260" fill="#0b2a5b" opacity=".12"/>

  <g filter="url(#shadow)">
    <rect x="248" y="192" width="704" height="496" rx="28" fill="#fff"/>
    <rect x="248" y="192" width="704" height="76" rx="28" fill="url(#navy)"/>
    <text x="302" y="244" font-family="Arial, sans-serif" font-size="28" font-weight="800" fill="#fff">PLAYER OPPORTUNITY AGREEMENT</text>
    <rect x="302" y="320" width="300" height="14" rx="7" fill="#ccd5e1"/>
    <rect x="302" y="362" width="528" height="10" rx="5" fill="#e4e9f0"/>
    <rect x="302" y="390" width="478" height="10" rx="5" fill="#e4e9f0"/>
    <rect x="302" y="418" width="520" height="10" rx="5" fill="#e4e9f0"/>
    <rect x="302" y="476" width="220" height="12" rx="6" fill="#ccd5e1"/>
    <path d="M305 580 C380 526 421 636 496 568 C535 532 574 538 628 580" stroke="#061936" stroke-width="9" fill="none" stroke-linecap="round"/>
    <rect x="302" y="612" width="360" height="4" fill="#9BE000"/>
    <rect x="720" y="520" width="142" height="142" rx="18" fill="#f2f5f8" stroke="#d8e0ea"/>
    <path d="M756 590 l24 24 48 -64" stroke="#9BE000" stroke-width="14" fill="none" stroke-linecap="round" stroke-linejoin="round"/>
  </g>

  <g transform="translate(115,416)">
    <circle cx="140" cy="42" r="42" fill="#17233a"/>
    <path d="M86 305 C94 184 101 108 140 108 C181 108 191 184 199 305 Z" fill="#061936"/>
    <path d="M112 124 L72 246" stroke="#061936" stroke-width="28" stroke-linecap="round"/>
    <path d="M171 126 L264 210" stroke="#061936" stroke-width="28" stroke-linecap="round"/>
    <path d="M248 200 C290 190 315 202 334 224" stroke="#9BE000" stroke-width="18" stroke-linecap="round"/>
  </g>
  <g transform="translate(890,418)">
    <circle cx="94" cy="38" r="38" fill="#17233a"/>
    <path d="M45 300 C52 180 58 104 94 104 C132 104 140 180 147 300 Z" fill="#0b2a5b"/>
    <path d="M65 126 L-28 212" stroke="#0b2a5b" stroke-width="26" stroke-linecap="round"/>
    <path d="M-18 205 C-58 194 -83 207 -102 226" stroke="#9BE000" stroke-width="18" stroke-linecap="round"/>
  </g>

  <g transform="translate(806,644) rotate(-18)">
    <rect x="0" y="0" width="180" height="18" rx="9" fill="#061936"/>
    <polygon points="180,0 220,9 180,18" fill="#9BE000"/>
    <rect x="-22" y="0" width="30" height="18" rx="5" fill="#c8d2df"/>
  </g>
</svg>
